<svg width="606" height="126" viewBox="0 0 606 126" fill="none" xmlns="http://www.w3.org/2000/svg">
<path d="M37.8182 30.9091L47.3182 99.0909H48.0909L80.2273 30.9091H105.409L58.5455 124H28.5909L12.6364 30.9091H37.8182ZM137.932 30.9091L122.477 124H99.9773L115.432 30.9091H137.932ZM197.648 59C197.89 55.5758 196.981 52.9242 194.92 51.0455C192.89 49.1667 189.678 48.2273 185.284 48.2273C182.375 48.2273 179.89 48.6061 177.83 49.3636C175.769 50.0909 174.148 51.1212 172.966 52.4545C171.784 53.7576 171.042 55.2727 170.739 57C170.466 58.3636 170.542 59.5758 170.966 60.6364C171.39 61.697 172.133 62.6364 173.193 63.4545C174.284 64.2727 175.633 64.9848 177.239 65.5909C178.875 66.197 180.708 66.7273 182.739 67.1818L190.375 69C194.799 70 198.633 71.3333 201.875 73C205.148 74.6364 207.799 76.6212 209.83 78.9545C211.86 81.2576 213.254 83.9091 214.011 86.9091C214.769 89.9091 214.83 93.2727 214.193 97C213.223 102.879 210.905 107.924 207.239 112.136C203.602 116.348 198.845 119.576 192.966 121.818C187.117 124.061 180.314 125.182 172.557 125.182C164.799 125.182 158.208 124.015 152.784 121.682C147.39 119.318 143.481 115.758 141.057 111C138.633 106.242 137.981 100.242 139.102 93H160.602C160.269 96 160.648 98.5 161.739 100.5C162.86 102.5 164.587 104.015 166.92 105.045C169.254 106.076 172.072 106.591 175.375 106.591C178.405 106.591 181.057 106.182 183.33 105.364C185.633 104.545 187.466 103.409 188.83 101.955C190.223 100.5 191.072 98.8333 191.375 96.9545C191.678 95.2273 191.39 93.7273 190.511 92.4545C189.663 91.1818 188.208 90.0758 186.148 89.1364C184.117 88.197 181.451 87.3485 178.148 86.5909L168.83 84.3182C161.133 82.4394 155.299 79.4394 151.33 75.3182C147.39 71.197 145.996 65.6061 147.148 58.5455C148.117 52.7576 150.511 47.697 154.33 43.3636C158.178 39.0303 163.042 35.6667 168.92 33.2727C174.83 30.8485 181.33 29.6364 188.42 29.6364C195.633 29.6364 201.693 30.8636 206.602 33.3182C211.542 35.7424 215.102 39.1667 217.284 43.5909C219.496 47.9848 220.133 53.1212 219.193 59H197.648ZM259.057 30.9091L243.602 124H221.102L236.557 30.9091H259.057ZM353.091 78.9091C351.394 88.9394 348.061 97.4091 343.091 104.318C338.152 111.197 332.136 116.409 325.045 119.955C317.985 123.5 310.394 125.273 302.273 125.273C293.697 125.273 286.273 123.364 280 119.545C273.727 115.727 269.167 110.167 266.318 102.864C263.5 95.5606 262.955 86.697 264.682 76.2727C266.318 66.2424 269.606 57.7576 274.545 50.8182C279.515 43.8788 285.561 38.6212 292.682 35.0454C299.833 31.4394 307.5 29.6364 315.682 29.6364C324.197 29.6364 331.576 31.5606 337.818 35.4091C344.091 39.2576 348.636 44.8485 351.455 52.1818C354.273 59.5151 354.818 68.4242 353.091 78.9091ZM330.591 76.2727C331.53 70.4242 331.53 65.5 330.591 61.5C329.682 57.5 327.894 54.4848 325.227 52.4545C322.561 50.3939 319.091 49.3636 314.818 49.3636C310.091 49.3636 305.818 50.5303 302 52.8636C298.212 55.1667 295.045 58.5303 292.5 62.9545C289.955 67.3485 288.182 72.6667 287.182 78.9091C286.152 84.8182 286.121 89.7424 287.091 93.6818C288.091 97.6212 289.955 100.591 292.682 102.591C295.409 104.561 298.879 105.545 303.091 105.545C307.788 105.545 312.015 104.409 315.773 102.136C319.53 99.8636 322.667 96.5455 325.182 92.1818C327.727 87.8182 329.53 82.5152 330.591 76.2727ZM453.409 30.9091L437.955 124H418.864L390.818 70.2727H390.182L381.227 124H358.727L374.182 30.9091H393.545L421.364 84.5455H422.136L430.955 30.9091H453.409Z" fill="url(#paint0_linear_10_4)"/>
<path d="M505.875 68.9091L503.102 86H460.057L462.83 68.9091H505.875ZM513.705 108.545L516.614 91L564.75 30.9091H580.341L576.386 54.7273H567.341L539.159 90.0909L538.977 90.8182H594.25L591.295 108.545H513.705ZM556.114 124L559.614 103.182L561.341 95.5L572.023 30.9091H593.068L577.614 124H556.114Z" fill="#96D7FF"/>
<defs>
<linearGradient id="paint0_linear_10_4" x1="0" y1="63" x2="606" y2="63" gradientUnits="userSpaceOnUse">
<stop stop-color="#FEC006"/>
<stop offset="0.5" stop-color="white"/>
<stop offset="1" stop-color="#46B8FF"/>
</linearGradient>
</defs>
</svg>
